<?xml version="1.0" encoding="utf-8"?>
<!-- Generator: Adobe Illustrator 16.0.0, SVG Export Plug-In . SVG Version: 6.00 Build 0)  -->
<!DOCTYPE svg PUBLIC "-//W3C//DTD SVG 1.1//EN" "http://www.w3.org/Graphics/SVG/1.1/DTD/svg11.dtd">
<svg version="1.1" id="Layer_1" xmlns="http://www.w3.org/2000/svg" xmlns:xlink="http://www.w3.org/1999/xlink" x="0px" y="0px"
	 width="612px" height="792px" viewBox="0 0 612 792" enable-background="new 0 0 612 792" xml:space="preserve">
<path fill="#E8BE1F" d="M429.75,594c14.85-49.346,45.633-91.42,76.106-133.341l0,0c8.044-10.982,16.087-21.966,23.821-33.103
	c30.629-44.086,48.572-97.454,48.572-155.152C578.25,121.894,456.356,0,306,0S33.75,121.894,33.75,272.25
	c0,57.698,17.944,111.22,48.572,155.151c7.734,11.138,15.778,22.12,23.822,33.104l0,0c30.628,41.92,61.411,84.149,76.106,133.341
	h247.5V594z M306,792c68.372,0,123.75-55.378,123.75-123.75V643.5h-247.5v24.75C182.25,736.622,237.628,792,306,792z M182.25,272.25
	c0,13.612-11.138,24.75-24.75,24.75s-24.75-11.138-24.75-24.75C132.75,176.499,210.249,99,306,99c13.612,0,24.75,11.138,24.75,24.75
	S319.612,148.5,306,148.5C237.628,148.5,182.25,203.878,182.25,272.25z"/>
</svg>
