<?xml version="1.0" encoding="utf-8"?>
<!-- Generator: Adobe Illustrator 16.0.0, SVG Export Plug-In . SVG Version: 6.00 Build 0)  -->
<!DOCTYPE svg PUBLIC "-//W3C//DTD SVG 1.1//EN" "http://www.w3.org/Graphics/SVG/1.1/DTD/svg11.dtd">
<svg version="1.1" id="Layer_1" xmlns="http://www.w3.org/2000/svg" xmlns:xlink="http://www.w3.org/1999/xlink" x="0px" y="0px"
	 width="259.389px" height="140.063px" viewBox="0 14.219 259.389 140.063" enable-background="new 0 14.219 259.389 140.063"
	 xml:space="preserve">
<g id="Layer_1_1_" display="none">
	
		<image display="inline" overflow="visible" enable-background="new    " width="1000" height="1000" xlink:href="C6141369.png"  transform="matrix(0.7501 0 0 0.7501 -263.8015 -281.7996)">
	</image>
</g>
<g id="Layer_3">
	<g>
		<path d="M17.585,52.693h17.663V86.29c0,1.536-0.56,2.879-1.679,4.032c-1.122,1.15-2.513,1.729-4.176,1.729H5.874
			c-1.599,0-2.976-0.576-4.128-1.729c-1.151-1.153-1.728-2.495-1.728-4.032V30.615c0-1.535,0.576-2.88,1.728-4.03
			c1.152-1.152,2.529-1.729,4.128-1.729h29.278v11.52H11.73v44.157h11.711V64.213h-5.855V52.693z"/>
		<path d="M57.903,24.855h11.52l18.047,67.196H75.277l-2.591-9.983v0.769l-17.95-0.29v-0.671c-0.193,0.768-0.401,1.583-0.625,2.448
			c-0.224,0.863-0.465,1.712-0.72,2.544c-0.256,0.896-0.496,1.793-0.72,2.688c-0.225,0.896-0.432,1.728-0.623,2.495H40.049
			L57.903,24.855z M57.519,71.316h12.288c-0.706-2.815-1.44-5.568-2.208-8.254c-0.769-2.688-1.505-5.408-2.208-8.16l-1.729-6.239
			L57.519,71.316z"/>
		<path d="M126.009,54.421c1.119,1.151,1.681,2.497,1.681,4.032V86.29c0,1.536-0.562,2.879-1.681,4.032
			c-1.12,1.15-2.513,1.729-4.175,1.729H92.459V80.531h23.423V64.213H98.315c-1.601,0-2.975-0.576-4.128-1.729
			c-1.152-1.152-1.728-2.495-1.728-4.031V30.615c0-1.535,0.576-2.88,1.728-4.03c1.153-1.152,2.527-1.729,4.128-1.729h29.375v11.52
			H104.17v16.318h17.662C123.496,52.693,124.888,53.27,126.009,54.421z"/>
		<path d="M132.87,24.855h35.135v11.52h-11.711v55.676h-11.711V36.374H132.87V24.855L132.87,24.855z"/>
		<path d="M178.851,92.051c-1.602,0-2.975-0.576-4.128-1.729c-1.15-1.153-1.729-2.496-1.729-4.032V30.615
			c0-1.535,0.576-2.88,1.729-4.03c1.153-1.152,2.528-1.729,4.128-1.729h23.52c1.662,0,3.056,0.577,4.175,1.729
			c1.12,1.15,1.682,2.496,1.682,4.03V86.29c0,1.536-0.562,2.879-1.682,4.032c-1.119,1.15-2.513,1.729-4.175,1.729H178.851z
			 M184.708,80.532h11.71V36.375h-11.71V80.532z"/>
		<path d="M218.401,24.855h11.71l17.568,39.453V24.855h11.711v67.196h-11.905l-17.374-39.165v39.165h-11.71V24.855z"/>
	</g>
	<g>
		<path fill="#4F23FF" d="M1.814,111.087h18.358c1.04,0,1.91,0.287,2.61,0.861c0.7,0.578,1.049,1.249,1.049,2.019v13.921
			c0,0.765-0.35,1.438-1.049,2.013c-0.701,0.576-1.571,0.865-2.61,0.865h-2.399c0.438,0.96,0.899,1.943,1.38,2.953
			c0.48,1.006,0.939,2.022,1.38,3.047c0.561,1.279,1.161,2.624,1.8,4.031c0.639,1.408,1.239,2.703,1.801,3.887h-7.561l-6.36-14.302
			v0.384H9.134v13.918h-7.32V111.087z M9.134,125.006h7.319v-8.159H9.134V125.006z"/>
		<path fill="#4F23FF" d="M29.472,123.085c0-0.673,0.29-1.238,0.869-1.703c0.579-0.465,1.291-0.695,2.13-0.695h12.059
			c0.84,0,1.55,0.23,2.13,0.695s0.87,1.03,0.87,1.703v12H35.472v4.8H47.53v4.799H32.472c-0.84,0-1.552-0.23-2.13-0.695
			c-0.581-0.463-0.869-1.03-0.869-1.704V123.085z M35.472,130.286h6.059v-4.801h-6.059V130.286z"/>
		<path fill="#4F23FF" d="M52.929,123.085c0-0.673,0.291-1.238,0.87-1.703c0.578-0.465,1.29-0.695,2.129-0.695h12.059
			c0.839,0,1.549,0.23,2.129,0.695c0.581,0.465,0.87,1.03,0.87,1.703v19.199c0,0.672-0.291,1.241-0.87,1.704
			c-0.58,0.463-1.29,0.695-2.129,0.695h-9.059v9.598h-6V123.085z M58.929,139.885h6v-14.399h-6V139.885z"/>
		<path fill="#4F23FF" d="M79.507,144.684c-0.841,0-1.552-0.23-2.13-0.695c-0.581-0.463-0.87-1.03-0.87-1.704v-9.598
			c0-0.673,0.29-1.242,0.87-1.705c0.579-0.464,1.289-0.695,2.13-0.695h9v-4.801H76.387v-4.799h15.178c0.84,0,1.549,0.23,2.13,0.695
			c0.579,0.465,0.87,1.03,0.87,1.703v21.599H79.507z M82.506,135.085v4.8h6v-4.8H82.506z"/>
		<path fill="#4F23FF" d="M112.023,120.687v4.799h-6.06v19.198h-6v-21.599c0-0.673,0.291-1.238,0.87-1.703
			c0.579-0.465,1.29-0.695,2.13-0.695H112.023z"/>
		<path fill="#4F23FF" d="M120.543,144.684c-0.841,0-1.551-0.23-2.13-0.695c-0.58-0.463-0.868-1.03-0.868-1.704v-9.598
			c0-0.673,0.288-1.242,0.868-1.705c0.579-0.464,1.29-0.695,2.13-0.695h9v-4.801h-12.12v-4.799h15.18c0.84,0,1.549,0.23,2.128,0.695
			c0.58,0.465,0.872,1.03,0.872,1.703v21.599H120.543z M123.544,135.085v4.8h6v-4.8H123.544z"/>
		<path fill="#4F23FF" d="M141.871,143.989c-0.58-0.463-0.869-1.03-0.869-1.704v-19.199c0-0.673,0.289-1.238,0.869-1.703
			c0.579-0.465,1.29-0.695,2.13-0.695h9.06v4.799h-6.058v14.399h6.058v4.799h-9.06C143.161,144.684,142.45,144.451,141.871,143.989z
			"/>
		<path fill="#4F23FF" d="M158.46,111.087h5.999v4.801h-5.999V111.087z M158.46,120.687h5.999v23.997h-5.999V120.687z"/>
		<path fill="#4F23FF" d="M172.859,144.684c-0.84,0-1.553-0.23-2.13-0.695c-0.58-0.463-0.869-1.03-0.869-1.704v-19.199
			c0-0.673,0.289-1.238,0.869-1.703c0.577-0.465,1.29-0.695,2.13-0.695h12.059c0.841,0,1.552,0.23,2.133,0.695
			c0.578,0.465,0.867,1.03,0.867,1.703v19.199c0,0.672-0.289,1.241-0.867,1.704c-0.581,0.463-1.292,0.695-2.133,0.695H172.859
			L172.859,144.684z M175.857,139.885h6.001v-14.399h-6.001V139.885z"/>
		<path fill="#4F23FF" d="M208.375,120.687c0.84,0,1.551,0.23,2.131,0.695c0.579,0.465,0.87,1.03,0.87,1.703v21.599h-6.06v-19.198
			h-6.001v19.198h-5.999v-23.997H208.375z"/>
		<path fill="#4F23FF" d="M216.775,123.085c0-0.673,0.29-1.238,0.869-1.703s1.29-0.695,2.13-0.695h12.059
			c0.842,0,1.552,0.23,2.133,0.695c0.58,0.465,0.869,1.03,0.869,1.703v12h-12.061v4.8h12.061v4.799h-15.061
			c-0.84,0-1.551-0.23-2.13-0.695c-0.579-0.463-0.869-1.03-0.869-1.704V123.085z M222.774,130.286h6.06v-4.801h-6.06V130.286z"/>
		<path fill="#4F23FF" d="M257.421,130.982c0.579,0.463,0.868,1.032,0.868,1.705v9.598c0,0.674-0.289,1.241-0.868,1.704
			c-0.582,0.465-1.29,0.695-2.131,0.695H240.23v-4.799h12v-4.8h-8.998c-0.841,0-1.551-0.231-2.132-0.696
			c-0.579-0.463-0.87-1.032-0.87-1.702v-9.602c0-0.673,0.291-1.238,0.87-1.703c0.581-0.465,1.291-0.695,2.132-0.695h15.058v4.799
			h-12.059v4.801h9.06C256.131,130.286,256.839,130.518,257.421,130.982z"/>
	</g>
</g>
</svg>
