<?xml version="1.0" encoding="utf-8"?>
<!-- Generator: Adobe Illustrator 16.0.0, SVG Export Plug-In . SVG Version: 6.00 Build 0)  -->
<!DOCTYPE svg PUBLIC "-//W3C//DTD SVG 1.1//EN" "http://www.w3.org/Graphics/SVG/1.1/DTD/svg11.dtd">
<svg version="1.1" id="Layer_1" xmlns="http://www.w3.org/2000/svg" xmlns:xlink="http://www.w3.org/1999/xlink" x="0px" y="0px"
	 width="320px" height="375px" viewBox="0 0 320 375" enable-background="new 0 0 320 375" xml:space="preserve">
<g id="Layer_1_1_" display="none">
	
		<image display="inline" overflow="visible" enable-background="new    " width="1000" height="1000" xlink:href="BCC7E936.png"  transform="matrix(0.7501 0 0 0.7501 -232.7827 -135.2363)">
	</image>
</g>
<g id="Layer_3">
	<path d="M60.24,93.272c6.002,0,96.861,0,96.861,0V55.405c-58.205,0-113.533,0-121.089,0C19.673,55.405,0,67.524,0,90.416
		c0,31.645,0.333,170.001,0.333,191.377S15.005,320,36.011,320c14.243,0,80.129,0,121.089,0V146.349H82.693v50.443h42.68v80.667
		c0,0-56.684,0-67.898,0c-11.213,0-18.882-8.964-18.882-19.063c0-10.1,0-135.775,0-142.932
		C38.593,100.834,45.755,93.272,60.24,93.272z"/>
	<g>
		<path fill="#4F23FF" d="M265.657,179.042c0.03,2.513-0.271,4.606-2.907,5.863c-9.884,4.71-15.727,12.622-16.898,23.563
			c-1.166,10.86,2.916,19.74,11.561,27.139c0-7.061-0.079-13.571,0.02-20.08c0.137-8.872,7.113-15.982,15.562-16.01
			c0.021,0,0.038,0,0.058,0c9.186,0,16.155,7.073,16.215,16.529c0.039,6.385,0.008,12.771,0.008,19.277
			c3.961-1.111,5.205-4.428,7.004-7.147c9.571-14.458,4.814-34.262-10.422-42.312c-3.629-1.917-5.125-4.229-4.611-8.133
			c0.039-0.291-0.029-0.6,0.012-0.891c0.15-1.1,0.018-2.045-0.568-2.453h-14.414C265.625,175.014,265.626,176.479,265.657,179.042z"
			/>
		<g>
			<path fill="#4F23FF" d="M295.471,229.468l-6.193-6.25c0,4.011-0.006,8.032-0.006,12.106
				C292.62,234.384,294.027,231.867,295.471,229.468z"/>
			<path fill="#4F23FF" d="M301.225,55.405c-1.451,0-8.636,0-19.764,0c-0.048-2.229,0.896-3.543,2.874-4.579
				c12.89-6.753,18.563-18.825,15.519-33.156c-1.474-6.94-5.099-12.583-10.664-16.921c-0.314,0.279-0.441,0.339-0.442,0.399
				c-0.026,6.554,0.008,13.109-0.077,19.663c-0.109,8.562-7.037,15.457-15.388,15.427c-8.636-0.031-15.841-7.115-15.892-15.683
				C257.35,13.901,257.382,7.247,257.382,0c-0.71,0.524-1.009,0.727-1.286,0.954c-16.347,13.299-13.352,39.974,5.604,49.377
				c2.362,1.172,3.817,2.631,3.94,5.074c-28.123,0-68.992,0-108.541,0V320c19.453,0,33.292,0,33.292,0V174.532h10.086l39.242,39.53
				c-0.111-2.033-0.065-4.113,0.162-6.246c1.002-9.336,4.967-17.049,11.584-22.752l-10.392-10.486c0,0,8.356,0,18.8,0
				c1.004,0,2.029,0,3.066,0c1.097,0,2.207,0,3.328,0c4.817,0,9.795,0,14.412,0c1.172,0,2.32,0,3.438,0c1.053,0,2.077,0,3.065,0
				c5.715,0,10.246,0,12.206,0c7.97,0,20.606-9.766,20.606-20.804c0-11.038,0-70.764,0-79.414S310.432,55.405,301.225,55.405z
				 M185.064,150.788c0.01,2.227-0.795,2.592-2.728,2.542c-4.817-0.121-9.646-0.156-14.462,0.012
				c-2.262,0.078-3.034-0.478-2.997-2.919c0.144-9.932,0.06-19.867,0.06-29.801c0-10.132,0.054-20.265-0.045-30.396
				c-0.021-1.979,0.539-2.504,2.465-2.453c5.113,0.137,10.233,0.112,15.349,0.011c1.688-0.034,2.366,0.231,2.358,2.208
				C184.98,110.258,184.977,130.522,185.064,150.788z M282.207,78.626c4.809,0.12,9.618,0.121,14.428,0.149
				c2.662,0.016,3.89,1.474,4.069,4.027c0.008,0.1,0.021,0.198,0.021,0.296c-0.033,3.269-0.07,6.536-0.107,9.803
				c-3.393,0.777-6.83,0.031-9.569,0.323c-3.125,0-5.589-0.1-8.039,0.034c-1.801,0.096-2.647-0.252-2.53-2.372
				c0.192-3.463,0.148-6.949,0.002-10.417C280.416,79,280.761,78.591,282.207,78.626z M258.521,115.299
				c-0.082-7.641-0.022-15.285-0.103-22.925c-0.04-3.797-2.733-5.854-5.688-4.48c-1.713,0.797-2.418,2.26-2.403,4.066
				c0.116,13.762-10.063,26.492-24.543,29.014c-0.191,0.035-0.377,0.11-0.568,0.154c-1.407,0.321-3.743-0.554-4.104,0.576
				c-0.655,2.071-0.338,4.491-0.25,6.76c0.057,1.49,1.295,0.857,2.051,0.805c10.771-0.75,19.722-5.208,26.786-13.479
				c0.12-0.142,0.305-0.227,0.933-0.679c0.219,5.242,1.816,9.573,5.085,13.189c0.859,0.95,0.5,2.087,0.466,3.122
				c-0.125,3.622,0.104,7.128,2.336,10.184c0.336,0.458,0.707,0.78,0.137,1.444c-2.664,3.104-2.695,6.861-2.457,10.671
				c0.147,2.368-0.266,4.764,0.39,7.425c-5.295,0-10.565,0-15.838-0.002c-3.345-0.002-6.72-0.295-10.026,0.061
				c-4.094,0.439-6.996-0.943-9.639-4.077c-2.924-3.467-6.396-6.458-9.518-9.764c-1.271-1.342-2.627-1.863-4.43-1.777
				c-4.125,0.195-8.27,0.085-12.378,0.445c-2.015,0.178-1.741-0.862-1.741-2.044c0.006-15.297,0.026-30.594-0.022-45.89
				c-0.007-1.492,0.343-1.963,1.896-2.078c4.226-0.314,8.448-0.521,12.676-0.418c2.328,0.057,4.102-0.739,5.738-2.416
				c7.043-7.216,14.202-14.317,21.242-21.535c1.202-1.231,2.387-1.743,4.1-1.722c7.576,0.09,15.151,0.021,22.729,0.043
				c6.889,0.02,11.372,4.535,11.382,11.488c0.021,14.5-0.036,29,0.062,43.5c0.015,1.909-0.512,2.282-2.275,2.26
				C263.794,127.128,258.594,122.108,258.521,115.299z M295.286,156.99c-0.065,2.709-1.556,4.172-4.255,4.186
				c-7.469,0.033-14.938,0.039-22.405-0.046c-4.041-0.046-4.985-2.13-4.71-9.88c0.12-3.402,1.861-4.963,5.225-4.897
				c3.926,0.076,7.854,0.018,11.779,0.018c0,0.097,0,0.193,0,0.289c4.117,0,8.234,0.042,12.35-0.022
				c1.492-0.024,2.024,0.446,1.963,2.027C295.127,151.433,295.354,154.215,295.286,156.99z M301.051,134.393
				c-0.082,2.724-1.524,4.154-4.252,4.161c-9.416,0.02-18.832-0.046-28.247-0.038c-2.722,0.002-4.053-1.465-4.739-4.337
				c4.174,1.009,8.154,0.881,12.129,0.85c3.593-0.027,4.908-1.396,4.998-5.014c0.156-6.172,0.158-6.18,6.369-6.17
				c3.924,0.006,7.849,0.122,11.768,0.015c1.526-0.042,2.096,0.295,2.029,1.918C300.986,128.645,301.139,131.523,301.051,134.393z
				 M306.488,112.062c-0.075,2.468-1.362,3.84-3.859,3.862c-3.431,0.029-6.859,0.008-10.292,0.008c0-0.02,0-0.039,0-0.058
				c-3.231,0-6.467-0.049-9.698,0.023c-1.43,0.032-2.09-0.186-1.966-1.935c0.25-3.548,0.267-7.12,0.235-10.68
				c-0.014-1.519,0.395-2.036,1.971-2.012c6.271,0.091,12.543-0.015,18.813,0.064c3.575,0.045,4.682,1.247,4.764,4.798
				C306.501,108.108,306.55,110.086,306.488,112.062z"/>
			<path fill="#4F23FF" d="M290.878,241.162c-0.53,0.148-1.069,0.222-1.606,0.222c-1.297,0-2.576-0.425-3.633-1.235
				c-1.492-1.146-2.369-2.931-2.369-4.824c0-2.018,0.002-4.024,0.006-6.022c0.006-3.993,0.01-8.106-0.012-12.151l-11.386-11.49
				c-4.674,0.611-8.366,4.848-8.446,9.961c-0.065,4.413-0.051,8.814-0.033,13.474c0.008,2.128,0.016,4.294,0.016,6.513
				c0,0.687-0.127,1.35-0.342,1.977l16.517,16.639L279.585,320H320v-65.777l-20.164-20.35
				C298.214,236.48,295.746,239.796,290.878,241.162z"/>
		</g>
	</g>
</g>
</svg>
